<?xml version="1.0" encoding="iso-8859-1"?>
<!-- Generator: Adobe Illustrator 19.0.0, SVG Export Plug-In . SVG Version: 6.00 Build 0)  -->
<svg version="1.1" id="Capa_1" xmlns="http://www.w3.org/2000/svg" xmlns:xlink="http://www.w3.org/1999/xlink" x="0px" y="0px"
	 viewBox="0 0 456 456" style="enable-background:new 0 0 456 456;" xml:space="preserve">
<path style="fill:#F4CA62;" d="M136,304h240c35.346,0,64,28.654,64,64v24c0,35.346-28.654,64-64,64H136c-35.346,0-64-28.654-64-64
	v-24C72,332.654,100.654,304,136,304z"/>
<path style="fill:#A66444;" d="M64,152h240c35.346,0,64,28.654,64,64v24c0,35.346-28.654,64-64,64H64c-35.346,0-64-28.654-64-64v-24
	C0,180.654,28.654,152,64,152z"/>
<path style="fill:#F4CA62;" d="M152,0h240c35.346,0,64,28.654,64,64v24c0,35.346-28.654,64-64,64H152c-35.346,0-64-28.654-64-64V64
	C88,28.654,116.654,0,152,0z"/>
<path style="fill:#F790B0;" d="M402.664,88H141.336c-13.848,0-27.322-4.491-38.4-12.8L88,64c0-35.346,28.654-64,64-64h240
	c35.346,0,64,28.654,64,64l-14.936,11.2C429.986,83.509,416.512,88,402.664,88z"/>
<path style="fill:#E44E79;" d="M272,52.576c-21.105,0.002-42.038-3.792-61.8-11.2l-5.016-1.88
	c-4.193-1.391-6.465-5.919-5.074-10.112c1.391-4.193,5.919-6.465,10.112-5.074c0.19,0.063,0.377,0.133,0.562,0.21l5.008,1.88
	c36.222,13.583,76.138,13.583,112.36,0l5-1.872c4.078-1.701,8.762,0.225,10.464,4.302c1.701,4.078-0.225,8.762-4.302,10.464
	c-0.184,0.077-0.372,0.147-0.561,0.21l-5.008,1.88C313.999,48.782,293.085,52.572,272,52.576z"/>
<path style="fill:#EAEAE8;" d="M376,304H136c-35.346,0-64,28.654-64,64v8h48v8c0,13.255,10.745,24,24,24s24-10.745,24-24v-16
	c0-8.837,7.163-16,16-16h0.592c8.509,0.009,15.404,6.907,15.408,15.416v0.496c-0.049,13.255,10.657,24.039,23.912,24.088
	c0.029,0,0.059,0,0.088,0h8c13.255,0,24-10.745,24-24c0-8.837,7.163-16,16-16s16,7.163,16,16v24c0,13.255,10.745,24,24,24
	s24-10.745,24-24v-24c0-8.837,7.163-16,16-16s16,7.163,16,16c0,4.418,3.582,8,8,8h64v-8C440,332.654,411.346,304,376,304L376,304z"
	/>
<g>
	<path style="fill:#533222;" d="M40,192h16v16H40V192z"/>
	<path style="fill:#533222;" d="M72,224h16v16H72V224z"/>
	<path style="fill:#533222;" d="M136,224h16v16h-16V224z"/>
	<path style="fill:#533222;" d="M104,192h16v16h-16V192z"/>
	<path style="fill:#533222;" d="M168,192h16v16h-16V192z"/>
	<path style="fill:#533222;" d="M200,224h16v16h-16V224z"/>
	<path style="fill:#533222;" d="M232,192h16v16h-16V192z"/>
	<path style="fill:#533222;" d="M264,224h16v16h-16V224z"/>
	<path style="fill:#533222;" d="M328,224h16v16h-16V224z"/>
	<path style="fill:#533222;" d="M296,192h16v16h-16V192z"/>
	<path style="fill:#533222;" d="M40,256h16v16H40V256z"/>
	<path style="fill:#533222;" d="M104,256h16v16h-16V256z"/>
	<path style="fill:#533222;" d="M168,256h16v16h-16V256z"/>
	<path style="fill:#533222;" d="M232,256h16v16h-16V256z"/>
	<path style="fill:#533222;" d="M296,256h16v16h-16V256z"/>
</g>
<g>
</g>
<g>
</g>
<g>
</g>
<g>
</g>
<g>
</g>
<g>
</g>
<g>
</g>
<g>
</g>
<g>
</g>
<g>
</g>
<g>
</g>
<g>
</g>
<g>
</g>
<g>
</g>
<g>
</g>
</svg>
