<svg width="345" height="200" viewBox="0 0 345 200" fill="none" xmlns="http://www.w3.org/2000/svg">
<rect x="0.5" y="0.5" width="344" height="199" fill="#F6EAD4" stroke="black"/>
<path d="M199.235 63.5472C198.677 63.2031 197.997 63.1741 197.411 63.4656L193.993 65.1747C193.412 64.2475 192.391 63.625 191.219 63.625H181.125C180.921 62.6838 180.617 61.7697 180.058 61.0037C181.875 59.695 182.979 57.6522 183.202 55.1875H183.25H187.938V53.3125H184.14C183.668 48.5819 179.666 44.875 174.812 44.875C169.643 44.875 165.438 49.0806 165.438 54.25C165.438 54.7675 165.858 55.1875 166.375 55.1875H166.422C166.645 57.6447 167.743 59.6828 169.55 60.9916C168.695 62.0969 168.25 63.6287 168.25 65.5V75.8125C168.25 77.3069 168.84 78.6634 169.793 79.6712C169.287 79.6066 168.774 79.5625 168.25 79.5625H166.375V64.5625V60.8125C166.375 60.295 165.955 59.875 165.438 59.875H144.812C144.295 59.875 143.875 60.295 143.875 60.8125V64.5625V80.5V84.25C143.875 84.7675 144.295 85.1875 144.812 85.1875H150.497C149.278 87.0841 148.562 89.3331 148.562 91.75V95.5C148.562 96.0175 148.983 96.4375 149.5 96.4375H156.062C156.062 99.0222 158.165 101.125 160.75 101.125C163.335 101.125 165.438 99.0222 165.438 96.4375H179.5H188.875C188.875 99.0222 190.978 101.125 193.562 101.125C196.147 101.125 198.25 99.0222 198.25 96.4375H199.188C199.705 96.4375 200.125 96.0175 200.125 95.5V86.125C200.125 82.8259 197.675 80.095 194.5 79.6375V67.9544L197.411 69.4103C197.678 69.5434 197.965 69.61 198.251 69.61C198.592 69.61 198.932 69.5153 199.235 69.3288C199.793 68.9837 200.125 68.3875 200.125 67.7331V65.1419C200.125 64.4875 199.793 63.8913 199.235 63.5472ZM170.125 74.875H179.5C179.5 75.3925 179.92 75.8125 180.438 75.8125C185.089 75.8125 188.875 79.5981 188.875 84.25V87.0625H185.125V85.1875C185.125 82.0853 182.602 79.5625 179.5 79.5625H173.875C171.807 79.5625 170.125 77.8806 170.125 75.8125V74.875ZM185.125 88.9375H189.557C190.335 89.4156 191.823 90.5322 192.394 91.75H185.125V88.9375ZM190.75 87.4731V84.25C190.75 78.8791 186.624 74.455 181.375 73.9797V70.1875H191.219C191.724 70.1875 192.197 70.0628 192.625 69.8584V88.9609C191.938 88.285 191.22 87.775 190.75 87.4731ZM180.349 65.5H191.219C191.994 65.5 192.625 66.1309 192.625 66.9062C192.625 67.6816 191.994 68.3125 191.219 68.3125H180.438C179.92 68.3125 179.5 68.7325 179.5 69.25V73H170.125V65.5C170.125 64.2841 170.365 62.6903 171.415 61.75H178.188C178.882 62.3856 179.201 63.3925 179.426 64.7191C179.501 65.17 179.892 65.5 180.349 65.5ZM174.812 46.75C178.63 46.75 181.791 49.6178 182.254 53.3125H167.371C167.834 49.6178 170.995 46.75 174.812 46.75ZM168.302 55.1875H181.323C181.09 57.3156 180.038 58.9497 178.312 59.875H171.313C169.587 58.9497 168.536 57.3147 168.302 55.1875ZM162.989 79.5625L164.452 75.1713C164.548 74.8853 164.499 74.5713 164.323 74.3266C164.147 74.0819 163.863 73.9375 163.562 73.9375H162.989L164.452 69.5462C164.548 69.2603 164.499 68.9463 164.323 68.7016C164.147 68.4569 163.863 68.3125 163.562 68.3125H146.688C146.387 68.3125 146.103 68.4569 145.927 68.7025C145.751 68.9472 145.703 69.2612 145.798 69.5472L147.261 73.9375H146.688C146.387 73.9375 146.103 74.0819 145.927 74.3275C145.751 74.5722 145.703 74.8863 145.798 75.1722L147.261 79.5625H145.75V65.5H164.5V79.5625H162.989ZM147.988 70.1875H154.188V72.0625H156.062V70.1875H162.262L161.012 73.9375H149.238L147.988 70.1875ZM147.988 75.8125H154.188V77.6875H156.062V75.8125H162.262L161.013 79.5625H160.75H149.238L147.988 75.8125ZM164.5 61.75V63.625H145.75V61.75H164.5ZM145.75 83.3125V81.4375H148.562H154.284C153.439 81.9691 152.664 82.5962 151.975 83.3125H145.75ZM160.75 99.25C159.199 99.25 157.938 97.9881 157.938 96.4375H163.562C163.562 97.9881 162.301 99.25 160.75 99.25ZM154.188 94.5625V93.625C154.188 88.9731 157.973 85.1875 162.625 85.1875C167.277 85.1875 171.062 88.9731 171.062 93.625V94.5625H154.188ZM178.562 94.5625H172.938V93.625C172.938 87.9391 168.311 83.3125 162.625 83.3125C156.939 83.3125 152.312 87.9391 152.312 93.625V94.5625H150.438V91.75C150.438 86.0641 155.064 81.4375 160.75 81.4375H161.688H168.25C173.936 81.4375 178.562 86.0641 178.562 91.75V94.5625ZM174.716 81.4375H179.5C181.568 81.4375 183.25 83.1194 183.25 85.1875V88V91.75H180.438C180.438 87.4056 178.146 83.5956 174.716 81.4375ZM180.438 94.5625V93.625H192.625V94.5625H180.438ZM193.562 99.25C192.012 99.25 190.75 97.9881 190.75 96.4375H193.562H196.375C196.375 97.9881 195.113 99.25 193.562 99.25ZM198.25 86.125V94.5625H194.5V81.5322C196.637 81.9681 198.25 83.8619 198.25 86.125ZM198.25 67.7331L195.659 66.4375L198.25 65.1419V67.7331Z" fill="black"/>
<path d="M44.768 132.336C45.712 132.512 46.512 132.992 47.168 133.776C47.824 134.56 48.152 135.472 48.152 136.512C48.152 137.36 47.936 138.128 47.504 138.816C47.088 139.488 46.472 140.024 45.656 140.424C44.84 140.808 43.864 141 42.728 141H36.92V124.224H42.56C44.256 124.224 45.544 124.616 46.424 125.4C47.32 126.184 47.768 127.2 47.768 128.448C47.768 129.488 47.488 130.336 46.928 130.992C46.368 131.632 45.648 132.08 44.768 132.336ZM38.6 131.64H42.512C43.648 131.64 44.52 131.376 45.128 130.848C45.752 130.304 46.064 129.56 46.064 128.616C46.064 127.688 45.752 126.96 45.128 126.432C44.52 125.904 43.624 125.64 42.44 125.64H38.6V131.64ZM42.608 139.584C43.824 139.584 44.768 139.296 45.44 138.72C46.128 138.144 46.472 137.352 46.472 136.344C46.472 135.336 46.112 134.536 45.392 133.944C44.688 133.336 43.736 133.032 42.536 133.032H38.6V139.584H42.608ZM52.9203 125.592V131.856H59.2803V133.248H52.9203V139.608H60.0003V141H51.2403V124.2H60.0003V125.592H52.9203ZM68.3986 141.168C67.2946 141.168 66.3186 140.976 65.4706 140.592C64.6386 140.208 63.9826 139.672 63.5026 138.984C63.0226 138.296 62.7666 137.528 62.7346 136.68H64.5106C64.5906 137.496 64.9506 138.216 65.5906 138.84C66.2306 139.448 67.1666 139.752 68.3986 139.752C69.5346 139.752 70.4306 139.464 71.0866 138.888C71.7586 138.296 72.0946 137.552 72.0946 136.656C72.0946 135.936 71.9106 135.36 71.5426 134.928C71.1746 134.48 70.7186 134.152 70.1746 133.944C69.6306 133.72 68.8786 133.48 67.9186 133.224C66.7986 132.92 65.9106 132.624 65.2546 132.336C64.5986 132.048 64.0386 131.6 63.5746 130.992C63.1106 130.384 62.8786 129.56 62.8786 128.52C62.8786 127.656 63.1026 126.888 63.5506 126.216C63.9986 125.528 64.6306 124.992 65.4466 124.608C66.2626 124.224 67.1986 124.032 68.2546 124.032C69.8066 124.032 71.0546 124.416 71.9986 125.184C72.9586 125.936 73.5106 126.912 73.6546 128.112H71.8306C71.7186 127.424 71.3426 126.816 70.7026 126.288C70.0626 125.744 69.1986 125.472 68.1106 125.472C67.1026 125.472 66.2626 125.744 65.5906 126.288C64.9186 126.816 64.5826 127.544 64.5826 128.472C64.5826 129.176 64.7666 129.744 65.1346 130.176C65.5026 130.608 65.9586 130.936 66.5026 131.16C67.0626 131.384 67.8146 131.624 68.7586 131.88C69.8466 132.184 70.7266 132.488 71.3986 132.792C72.0706 133.08 72.6386 133.528 73.1026 134.136C73.5666 134.744 73.7986 135.56 73.7986 136.584C73.7986 137.368 73.5906 138.112 73.1746 138.816C72.7586 139.52 72.1426 140.088 71.3266 140.52C70.5106 140.952 69.5346 141.168 68.3986 141.168ZM84.581 141.168C83.029 141.168 81.621 140.808 80.357 140.088C79.093 139.352 78.093 138.336 77.357 137.04C76.637 135.728 76.277 134.248 76.277 132.6C76.277 130.952 76.637 129.48 77.357 128.184C78.093 126.872 79.093 125.856 80.357 125.136C81.621 124.4 83.029 124.032 84.581 124.032C86.149 124.032 87.565 124.4 88.829 125.136C90.093 125.856 91.085 126.872 91.805 128.184C92.525 129.48 92.885 130.952 92.885 132.6C92.885 134.248 92.525 135.728 91.805 137.04C91.085 138.336 90.093 139.352 88.829 140.088C87.565 140.808 86.149 141.168 84.581 141.168ZM84.581 139.704C85.829 139.704 86.949 139.416 87.941 138.84C88.933 138.264 89.717 137.44 90.293 136.368C90.869 135.28 91.157 134.024 91.157 132.6C91.157 131.176 90.869 129.928 90.293 128.856C89.717 127.784 88.933 126.96 87.941 126.384C86.949 125.808 85.829 125.52 84.581 125.52C83.333 125.52 82.213 125.808 81.221 126.384C80.229 126.96 79.445 127.784 78.869 128.856C78.293 129.928 78.005 131.176 78.005 132.6C78.005 134.024 78.293 135.28 78.869 136.368C79.445 137.44 80.229 138.264 81.221 138.84C82.213 139.416 83.333 139.704 84.581 139.704ZM104.911 141L97.6391 133.248V141H95.9591V124.224H97.6391V132.072L104.911 124.224H107.047L99.1991 132.6L107.119 141H104.911ZM111.136 138.216L108.64 144.504H107.488L109.264 138.216H111.136ZM122.014 139.632H128.038V141H120.334V124.224H122.014V139.632ZM140.156 137.016H132.524L131.06 141H129.284L135.404 124.44H137.3L143.396 141H141.62L140.156 137.016ZM139.652 135.624L136.34 126.552L133.028 135.624H139.652ZM158.74 141H157.06L147.772 126.888V141H146.092V124.224H147.772L157.06 138.312V124.224H158.74V141ZM175.745 129.12C175.265 128.016 174.529 127.152 173.537 126.528C172.561 125.888 171.409 125.568 170.081 125.568C168.833 125.568 167.713 125.856 166.721 126.432C165.729 127.008 164.945 127.832 164.369 128.904C163.793 129.96 163.505 131.192 163.505 132.6C163.505 134.008 163.793 135.248 164.369 136.32C164.945 137.392 165.729 138.216 166.721 138.792C167.713 139.368 168.833 139.656 170.081 139.656C171.249 139.656 172.297 139.408 173.225 138.912C174.169 138.4 174.921 137.68 175.481 136.752C176.057 135.808 176.385 134.712 176.465 133.464H169.409V132.096H178.241V133.32C178.161 134.792 177.761 136.128 177.041 137.328C176.321 138.512 175.353 139.448 174.137 140.136C172.937 140.824 171.585 141.168 170.081 141.168C168.529 141.168 167.121 140.808 165.857 140.088C164.593 139.352 163.593 138.336 162.857 137.04C162.137 135.728 161.777 134.248 161.777 132.6C161.777 130.952 162.137 129.48 162.857 128.184C163.593 126.872 164.593 125.856 165.857 125.136C167.121 124.4 168.529 124.032 170.081 124.032C171.873 124.032 173.441 124.48 174.785 125.376C176.129 126.272 177.105 127.52 177.713 129.12H175.745ZM182.926 124.224V134.784C182.926 136.448 183.318 137.68 184.102 138.48C184.902 139.28 185.99 139.68 187.366 139.68C188.742 139.68 189.814 139.288 190.582 138.504C191.366 137.704 191.758 136.464 191.758 134.784V124.224H193.438V134.76C193.438 136.888 192.87 138.488 191.734 139.56C190.614 140.632 189.15 141.168 187.342 141.168C185.534 141.168 184.062 140.632 182.926 139.56C181.806 138.488 181.246 136.888 181.246 134.76V124.224H182.926ZM202.274 141.168C201.17 141.168 200.194 140.976 199.346 140.592C198.514 140.208 197.858 139.672 197.378 138.984C196.898 138.296 196.642 137.528 196.61 136.68H198.386C198.466 137.496 198.826 138.216 199.466 138.84C200.106 139.448 201.042 139.752 202.274 139.752C203.41 139.752 204.306 139.464 204.962 138.888C205.634 138.296 205.97 137.552 205.97 136.656C205.97 135.936 205.786 135.36 205.418 134.928C205.05 134.48 204.594 134.152 204.05 133.944C203.506 133.72 202.754 133.48 201.794 133.224C200.674 132.92 199.786 132.624 199.13 132.336C198.474 132.048 197.914 131.6 197.45 130.992C196.986 130.384 196.754 129.56 196.754 128.52C196.754 127.656 196.978 126.888 197.426 126.216C197.874 125.528 198.506 124.992 199.322 124.608C200.138 124.224 201.074 124.032 202.13 124.032C203.682 124.032 204.93 124.416 205.874 125.184C206.834 125.936 207.386 126.912 207.53 128.112H205.706C205.594 127.424 205.218 126.816 204.578 126.288C203.938 125.744 203.074 125.472 201.986 125.472C200.978 125.472 200.138 125.744 199.466 126.288C198.794 126.816 198.458 127.544 198.458 128.472C198.458 129.176 198.642 129.744 199.01 130.176C199.378 130.608 199.834 130.936 200.378 131.16C200.938 131.384 201.69 131.624 202.634 131.88C203.722 132.184 204.602 132.488 205.274 132.792C205.946 133.08 206.514 133.528 206.978 134.136C207.442 134.744 207.674 135.56 207.674 136.584C207.674 137.368 207.466 138.112 207.05 138.816C206.634 139.52 206.018 140.088 205.202 140.52C204.386 140.952 203.41 141.168 202.274 141.168ZM223.568 141H221.888L212.6 126.888V141H210.92V124.224H212.6L221.888 138.312V124.224H223.568V141ZM240.573 129.12C240.093 128.016 239.357 127.152 238.365 126.528C237.389 125.888 236.237 125.568 234.909 125.568C233.661 125.568 232.541 125.856 231.549 126.432C230.557 127.008 229.773 127.832 229.197 128.904C228.621 129.96 228.333 131.192 228.333 132.6C228.333 134.008 228.621 135.248 229.197 136.32C229.773 137.392 230.557 138.216 231.549 138.792C232.541 139.368 233.661 139.656 234.909 139.656C236.077 139.656 237.125 139.408 238.053 138.912C238.997 138.4 239.749 137.68 240.309 136.752C240.885 135.808 241.213 134.712 241.293 133.464H234.237V132.096H243.069V133.32C242.989 134.792 242.589 136.128 241.869 137.328C241.149 138.512 240.181 139.448 238.965 140.136C237.765 140.824 236.413 141.168 234.909 141.168C233.357 141.168 231.949 140.808 230.685 140.088C229.421 139.352 228.421 138.336 227.685 137.04C226.965 135.728 226.605 134.248 226.605 132.6C226.605 130.952 226.965 129.48 227.685 128.184C228.421 126.872 229.421 125.856 230.685 125.136C231.949 124.4 233.357 124.032 234.909 124.032C236.701 124.032 238.269 124.48 239.613 125.376C240.957 126.272 241.933 127.52 242.541 129.12H240.573ZM261.685 141L254.413 133.248V141H252.733V124.224H254.413V132.072L261.685 124.224H263.821L255.973 132.6L263.893 141H261.685ZM268.053 124.224V141H266.373V124.224H268.053ZM280.786 141L276.634 133.992H273.538V141H271.858V124.224H276.898C278.77 124.224 280.186 124.672 281.146 125.568C282.122 126.464 282.609 127.64 282.609 129.096C282.609 130.312 282.258 131.352 281.554 132.216C280.866 133.064 279.842 133.616 278.482 133.872L282.802 141H280.786ZM273.538 132.624H276.922C278.234 132.624 279.218 132.304 279.874 131.664C280.546 131.024 280.882 130.168 280.882 129.096C280.882 127.992 280.562 127.144 279.922 126.552C279.282 125.944 278.274 125.64 276.898 125.64H273.538V132.624ZM287.623 124.224V141H285.943V124.224H287.623ZM307.82 124.44V141H306.14V127.776L300.236 141H299.012L293.108 127.824V141H291.428V124.44H293.204L299.612 138.792L306.02 124.44H307.82Z" fill="black"/>
</svg>
