<svg width="218" height="200" viewBox="0 0 218 200" fill="none" xmlns="http://www.w3.org/2000/svg">
<rect x="0.5" y="0.5" width="217" height="199" fill="#F6EAD4" stroke="black"/>
<path d="M93 103.188H126.75C126.999 103.188 127.237 103.089 127.413 102.913C127.589 102.737 127.688 102.499 127.688 102.25V79.75C127.687 78.9807 127.497 78.2233 127.136 77.5442L120.188 64.5156V51.625C120.186 50.3822 119.692 49.1908 118.813 48.312C117.934 47.4332 116.743 46.9389 115.5 46.9375H93C91.7572 46.9389 90.5658 47.4332 89.687 48.312C88.8082 49.1908 88.3139 50.3822 88.3125 51.625V98.5C88.3139 99.7428 88.8082 100.934 89.687 101.813C90.5658 102.692 91.7572 103.186 93 103.188ZM119.25 88.1875C119.499 88.1875 119.737 88.0887 119.913 87.9129C120.089 87.7371 120.188 87.4986 120.188 87.25V68.5L125.482 78.4265C125.698 78.834 125.812 79.2884 125.812 79.75V101.312H120.188C117.981 101.31 115.864 100.444 114.287 98.9008C112.711 97.3573 111.801 95.2582 111.752 93.0525C111.799 92.8086 111.747 92.556 111.608 92.3501L105.527 83.3501C105.318 83.0442 105.171 82.6999 105.096 82.3372C105.02 81.9744 105.017 81.6004 105.087 81.2364C105.156 80.8725 105.297 80.5259 105.501 80.2165C105.705 79.9071 105.968 79.6411 106.275 79.4337C106.582 79.2262 106.927 79.0815 107.29 79.0078C107.653 78.934 108.027 78.9328 108.39 79.0041C108.754 79.0754 109.1 79.2178 109.408 79.4232C109.717 79.6285 109.981 79.8928 110.187 80.2008C110.193 80.209 110.199 80.217 110.204 80.2251L115.678 87.7996C115.765 87.9198 115.879 88.0176 116.011 88.085C116.143 88.1524 116.289 88.1876 116.438 88.1875H119.25ZM105.266 86.3125H100.5C100.003 86.3125 99.5258 86.115 99.1742 85.7633C98.8225 85.4117 98.625 84.9348 98.625 84.4375C98.625 83.9402 98.8225 83.4633 99.1742 83.1117C99.5258 82.76 100.003 82.5625 100.5 82.5625H103.238C103.349 83.2204 103.599 83.8468 103.973 84.3993L105.266 86.3125ZM113.625 67.5613V67.5625C113.625 68.5963 112.724 69.4375 111.616 69.4375C111.287 69.4411 110.962 69.3651 110.668 69.216C110.375 69.067 110.121 68.8492 109.93 68.5812C109.844 68.4572 109.729 68.3559 109.595 68.2859C109.461 68.2159 109.312 68.1794 109.161 68.1794C109.01 68.1794 108.861 68.2159 108.727 68.2859C108.593 68.3559 108.478 68.4572 108.391 68.5812C108.197 68.8465 107.944 69.0623 107.651 69.2111C107.358 69.3599 107.034 69.4374 106.705 69.4374C106.377 69.4374 106.053 69.3599 105.76 69.2111C105.467 69.0623 105.213 68.8465 105.019 68.5812C104.933 68.4572 104.818 68.3559 104.684 68.2859C104.55 68.216 104.401 68.1795 104.25 68.1795C104.099 68.1795 103.95 68.216 103.816 68.2859C103.682 68.3559 103.567 68.4572 103.481 68.5812C103.287 68.8465 103.033 69.0623 102.74 69.2111C102.447 69.3599 102.123 69.4374 101.795 69.4374C101.466 69.4374 101.142 69.3599 100.849 69.2111C100.556 69.0623 100.303 68.8465 100.109 68.5812C100.022 68.4572 99.9073 68.3559 99.7733 68.2859C99.6394 68.2159 99.4905 68.1794 99.3393 68.1794C99.1882 68.1794 99.0393 68.2159 98.9053 68.2859C98.7713 68.3559 98.6563 68.4572 98.5699 68.5812C98.3786 68.8492 98.1255 69.067 97.8319 69.216C97.5384 69.3651 97.2132 69.4411 96.8839 69.4375C95.7762 69.4375 94.875 68.5963 94.875 67.5625L113.625 67.5613ZM96.8443 65.6875C97.0618 64.6295 97.6374 63.6789 98.4741 62.9958C99.3108 62.3127 100.357 61.9389 101.438 61.9375H107.062C108.143 61.9388 109.189 62.3125 110.026 62.9956C110.863 63.6787 111.439 64.6294 111.656 65.6875H96.8443ZM96.5796 71.3125V71.2998C96.6802 71.3075 96.7814 71.3125 96.8843 71.3125C97.7743 71.3148 98.6391 71.0176 99.3397 70.4688C100.041 71.0157 100.905 71.3127 101.795 71.3127C102.684 71.3127 103.548 71.0157 104.25 70.4688C104.951 71.0157 105.815 71.3127 106.705 71.3127C107.594 71.3127 108.459 71.0157 109.16 70.4688C109.861 71.0176 110.725 71.3148 111.615 71.3125C111.718 71.3125 111.819 71.3075 111.92 71.2998V71.3125C112.343 71.3125 112.687 71.7331 112.687 72.25C112.687 72.7669 112.343 73.1875 111.92 73.1875H96.5796C96.1567 73.1875 95.8125 72.7669 95.8125 72.25C95.8125 71.7331 96.1567 71.3125 96.5796 71.3125ZM96.75 75.0625H111.75V76C111.75 76.2486 111.651 76.4869 111.475 76.6626C111.299 76.8384 111.061 76.9372 110.812 76.9375H97.6875C97.4389 76.9372 97.2007 76.8384 97.0249 76.6626C96.8491 76.4869 96.7503 76.2486 96.75 76V75.0625ZM90.1875 51.625C90.1884 50.8793 90.485 50.1645 91.0122 49.6372C91.5395 49.11 92.2543 48.8134 93 48.8125H115.5C116.246 48.8134 116.961 49.11 117.488 49.6372C118.015 50.1645 118.312 50.8793 118.312 51.625V54.4375H90.1875V51.625ZM90.1875 56.3125H118.312V86.3125H116.917L111.732 79.1376C111.639 79.0009 111.539 78.8692 111.432 78.743C112.054 78.6018 112.61 78.2535 113.008 77.7551C113.407 77.2568 113.624 76.638 113.625 76V74.3964C113.923 74.1242 114.16 73.7924 114.322 73.4227C114.483 73.053 114.565 72.6535 114.562 72.25C114.565 71.6279 114.368 71.0214 114.001 70.5193C114.463 70.1769 114.84 69.7314 115.1 69.2181C115.36 68.7049 115.497 68.138 115.5 67.5625C115.499 67.0654 115.302 66.5888 114.95 66.2373C114.599 65.8858 114.122 65.6881 113.625 65.6875H113.557C113.33 64.1266 112.549 62.6994 111.356 61.6667C110.164 60.634 108.64 60.0646 107.062 60.0625H101.438C99.8601 60.0646 98.3361 60.634 97.1437 61.6667C95.9514 62.6994 95.1703 64.1266 94.9431 65.6875H94.875C94.3779 65.6881 93.9013 65.8858 93.5498 66.2373C93.1983 66.5888 93.0006 67.0654 93 67.5625C93.0028 68.138 93.1398 68.7049 93.4001 69.2181C93.6603 69.7314 94.0367 70.1769 94.4993 70.5193C94.1321 71.0214 93.9352 71.6279 93.9375 72.25C93.9349 72.6535 94.0169 73.053 94.1784 73.4227C94.3399 73.7924 94.5772 74.1242 94.875 74.3964V76C94.8759 76.7457 95.1725 77.4605 95.6997 77.9878C96.227 78.515 96.9418 78.8116 97.6875 78.8125H104.225C103.779 79.3599 103.463 80.0009 103.3 80.6875H100.5C99.5054 80.6875 98.5516 81.0826 97.8484 81.7859C97.1451 82.4891 96.75 83.4429 96.75 84.4375C96.75 85.4321 97.1451 86.3859 97.8484 87.0891C98.5516 87.7924 99.5054 88.1875 100.5 88.1875H106.533L109.066 91.9375H90.1875V56.3125ZM90.1875 93.8125H109.92C110.057 95.3034 110.517 96.7465 111.268 98.0417C112.019 99.3369 113.043 100.453 114.269 101.312H93C92.2543 101.312 91.5395 101.015 91.0122 100.488C90.485 99.9605 90.1884 99.2457 90.1875 98.5V93.8125Z" fill="black"/>
<path d="M98.625 52.5625C99.1428 52.5625 99.5625 52.1428 99.5625 51.625C99.5625 51.1072 99.1428 50.6875 98.625 50.6875C98.1072 50.6875 97.6875 51.1072 97.6875 51.625C97.6875 52.1428 98.1072 52.5625 98.625 52.5625Z" fill="black"/>
<path d="M109.875 50.6875H103.312C103.064 50.6875 102.825 50.7863 102.65 50.9621C102.474 51.1379 102.375 51.3764 102.375 51.625C102.375 51.8736 102.474 52.1121 102.65 52.2879C102.825 52.4637 103.064 52.5625 103.312 52.5625H109.875C110.124 52.5625 110.362 52.4637 110.538 52.2879C110.714 52.1121 110.812 51.8736 110.812 51.625C110.812 51.3764 110.714 51.1379 110.538 50.9621C110.362 50.7863 110.124 50.6875 109.875 50.6875Z" fill="black"/>
<path d="M104.25 100.375C104.806 100.375 105.35 100.21 105.813 99.901C106.275 99.592 106.636 99.1527 106.848 98.6388C107.061 98.1249 107.117 97.5594 107.008 97.0138C106.9 96.4682 106.632 95.9671 106.239 95.5738C105.845 95.1804 105.344 94.9126 104.799 94.804C104.253 94.6955 103.688 94.7512 103.174 94.9641C102.66 95.177 102.221 95.5374 101.911 96C101.602 96.4625 101.438 97.0062 101.438 97.5625C101.438 98.3082 101.735 99.023 102.262 99.5503C102.789 100.078 103.504 100.374 104.25 100.375ZM104.25 96.625C104.435 96.625 104.617 96.68 104.771 96.783C104.925 96.886 105.045 97.0324 105.116 97.2037C105.187 97.375 105.206 97.5635 105.169 97.7454C105.133 97.9273 105.044 98.0943 104.913 98.2254C104.782 98.3565 104.615 98.4458 104.433 98.482C104.251 98.5182 104.063 98.4996 103.891 98.4286C103.72 98.3577 103.574 98.2375 103.47 98.0834C103.367 97.9292 103.312 97.7479 103.312 97.5625C103.313 97.3139 103.412 97.0757 103.587 96.8999C103.763 96.7241 104.001 96.6253 104.25 96.625Z" fill="black"/>
<path d="M43.456 144.168C41.904 144.168 40.496 143.808 39.232 143.088C37.968 142.352 36.968 141.336 36.232 140.04C35.512 138.728 35.152 137.248 35.152 135.6C35.152 133.952 35.512 132.48 36.232 131.184C36.968 129.872 37.968 128.856 39.232 128.136C40.496 127.4 41.904 127.032 43.456 127.032C45.024 127.032 46.44 127.4 47.704 128.136C48.968 128.856 49.96 129.872 50.68 131.184C51.4 132.48 51.76 133.952 51.76 135.6C51.76 137.248 51.4 138.728 50.68 140.04C49.96 141.336 48.968 142.352 47.704 143.088C46.44 143.808 45.024 144.168 43.456 144.168ZM43.456 142.704C44.704 142.704 45.824 142.416 46.816 141.84C47.808 141.264 48.592 140.44 49.168 139.368C49.744 138.28 50.032 137.024 50.032 135.6C50.032 134.176 49.744 132.928 49.168 131.856C48.592 130.784 47.808 129.96 46.816 129.384C45.824 128.808 44.704 128.52 43.456 128.52C42.208 128.52 41.088 128.808 40.096 129.384C39.104 129.96 38.32 130.784 37.744 131.856C37.168 132.928 36.88 134.176 36.88 135.6C36.88 137.024 37.168 138.28 37.744 139.368C38.32 140.44 39.104 141.264 40.096 141.84C41.088 142.416 42.208 142.704 43.456 142.704ZM59.8021 127.224C61.6581 127.224 63.2501 127.56 64.5781 128.232C65.9061 128.904 66.9221 129.872 67.6261 131.136C68.3301 132.4 68.6821 133.904 68.6821 135.648C68.6821 137.376 68.3301 138.872 67.6261 140.136C66.9221 141.384 65.9061 142.344 64.5781 143.016C63.2501 143.672 61.6581 144 59.8021 144H54.8341V127.224H59.8021ZM59.8021 142.608C62.1381 142.608 63.9141 142 65.1301 140.784C66.3621 139.552 66.9781 137.84 66.9781 135.648C66.9781 133.44 66.3621 131.72 65.1301 130.488C63.9141 129.24 62.1381 128.616 59.8021 128.616H56.5141V142.608H59.8021ZM73.4594 128.592V134.856H79.8194V136.248H73.4594V142.608H80.5394V144H71.7794V127.2H80.5394V128.592H73.4594ZM92.7777 144L88.6257 136.992H85.5297V144H83.8497V127.224H88.8897C90.7617 127.224 92.1777 127.672 93.1377 128.568C94.1137 129.464 94.6017 130.64 94.6017 132.096C94.6017 133.312 94.2497 134.352 93.5457 135.216C92.8577 136.064 91.8337 136.616 90.4737 136.872L94.7937 144H92.7777ZM85.5297 135.624H88.9137C90.2257 135.624 91.2097 135.304 91.8657 134.664C92.5377 134.024 92.8737 133.168 92.8737 132.096C92.8737 130.992 92.5537 130.144 91.9137 129.552C91.2737 128.944 90.2657 128.64 88.8897 128.64H85.5297V135.624ZM116.978 127.224V144H115.298V136.152H106.202V144H104.522V127.224H106.202V134.76H115.298V127.224H116.978ZM130.531 140.016H122.899L121.435 144H119.659L125.779 127.44H127.675L133.771 144H131.995L130.531 140.016ZM130.027 138.624L126.715 129.552L123.403 138.624H130.027ZM145.395 144L141.243 136.992H138.147V144H136.467V127.224H141.507C143.379 127.224 144.795 127.672 145.755 128.568C146.731 129.464 147.219 130.64 147.219 132.096C147.219 133.312 146.867 134.352 146.163 135.216C145.475 136.064 144.451 136.616 143.091 136.872L147.411 144H145.395ZM138.147 135.624H141.531C142.843 135.624 143.827 135.304 144.483 134.664C145.155 134.024 145.491 133.168 145.491 132.096C145.491 130.992 145.171 130.144 144.531 129.552C143.891 128.944 142.883 128.64 141.507 128.64H138.147V135.624ZM152.233 127.224V144H150.553V127.224H152.233ZM164.303 127.224V144H162.623V127.224H164.303ZM180.756 144H179.076L169.788 129.888V144H168.108V127.224H169.788L179.076 141.312V127.224H180.756V144ZM186.241 127.224V144H184.561V127.224H186.241Z" fill="black"/>
</svg>
