<svg width="303" height="200" viewBox="0 0 303 200" fill="none" xmlns="http://www.w3.org/2000/svg">
<rect x="0.5" y="0.5" width="302" height="199" fill="#F6EAD4" stroke="black"/>
<path d="M34.888 124.224C36.744 124.224 38.336 124.56 39.664 125.232C40.992 125.904 42.008 126.872 42.712 128.136C43.416 129.4 43.768 130.904 43.768 132.648C43.768 134.376 43.416 135.872 42.712 137.136C42.008 138.384 40.992 139.344 39.664 140.016C38.336 140.672 36.744 141 34.888 141H29.92V124.224H34.888ZM34.888 139.608C37.224 139.608 39 139 40.216 137.784C41.448 136.552 42.064 134.84 42.064 132.648C42.064 130.44 41.448 128.72 40.216 127.488C39 126.24 37.224 125.616 34.888 125.616H31.6V139.608H34.888ZM54.4013 141.168C52.8493 141.168 51.4413 140.808 50.1773 140.088C48.9133 139.352 47.9133 138.336 47.1773 137.04C46.4573 135.728 46.0973 134.248 46.0973 132.6C46.0973 130.952 46.4573 129.48 47.1773 128.184C47.9133 126.872 48.9133 125.856 50.1773 125.136C51.4413 124.4 52.8493 124.032 54.4013 124.032C55.9693 124.032 57.3853 124.4 58.6493 125.136C59.9133 125.856 60.9053 126.872 61.6253 128.184C62.3453 129.48 62.7053 130.952 62.7053 132.6C62.7053 134.248 62.3453 135.728 61.6253 137.04C60.9053 138.336 59.9133 139.352 58.6493 140.088C57.3853 140.808 55.9693 141.168 54.4013 141.168ZM54.4013 139.704C55.6493 139.704 56.7693 139.416 57.7613 138.84C58.7533 138.264 59.5373 137.44 60.1133 136.368C60.6893 135.28 60.9773 134.024 60.9773 132.6C60.9773 131.176 60.6893 129.928 60.1133 128.856C59.5373 127.784 58.7533 126.96 57.7613 126.384C56.7693 125.808 55.6493 125.52 54.4013 125.52C53.1533 125.52 52.0333 125.808 51.0413 126.384C50.0493 126.96 49.2653 127.784 48.6893 128.856C48.1133 129.928 47.8253 131.176 47.8253 132.6C47.8253 134.024 48.1133 135.28 48.6893 136.368C49.2653 137.44 50.0493 138.264 51.0413 138.84C52.0333 139.416 53.1533 139.704 54.4013 139.704ZM78.4274 141H76.7474L67.4594 126.888V141H65.7794V124.224H67.4594L76.7474 138.312V124.224H78.4274V141ZM91.9525 137.016H84.3205L82.8565 141H81.0805L87.2005 124.44H89.0965L95.1925 141H93.4165L91.9525 137.016ZM91.4485 135.624L88.1365 126.552L84.8245 135.624H91.4485ZM107.705 124.224V125.616H103.049V141H101.369V125.616H96.6888V124.224H107.705ZM122.031 141.168C120.927 141.168 119.951 140.976 119.103 140.592C118.271 140.208 117.615 139.672 117.135 138.984C116.655 138.296 116.399 137.528 116.367 136.68H118.143C118.223 137.496 118.583 138.216 119.223 138.84C119.863 139.448 120.799 139.752 122.031 139.752C123.167 139.752 124.063 139.464 124.719 138.888C125.391 138.296 125.727 137.552 125.727 136.656C125.727 135.936 125.543 135.36 125.175 134.928C124.807 134.48 124.351 134.152 123.807 133.944C123.263 133.72 122.511 133.48 121.551 133.224C120.431 132.92 119.543 132.624 118.887 132.336C118.231 132.048 117.671 131.6 117.207 130.992C116.743 130.384 116.511 129.56 116.511 128.52C116.511 127.656 116.735 126.888 117.183 126.216C117.631 125.528 118.263 124.992 119.079 124.608C119.895 124.224 120.831 124.032 121.887 124.032C123.439 124.032 124.687 124.416 125.631 125.184C126.591 125.936 127.143 126.912 127.287 128.112H125.463C125.351 127.424 124.975 126.816 124.335 126.288C123.695 125.744 122.831 125.472 121.743 125.472C120.735 125.472 119.895 125.744 119.223 126.288C118.551 126.816 118.215 127.544 118.215 128.472C118.215 129.176 118.399 129.744 118.767 130.176C119.135 130.608 119.591 130.936 120.135 131.16C120.695 131.384 121.447 131.624 122.391 131.88C123.479 132.184 124.359 132.488 125.031 132.792C125.703 133.08 126.271 133.528 126.735 134.136C127.199 134.744 127.431 135.56 127.431 136.584C127.431 137.368 127.223 138.112 126.807 138.816C126.391 139.52 125.775 140.088 124.959 140.52C124.143 140.952 123.167 141.168 122.031 141.168ZM132.358 124.224V141H130.678V124.224H132.358ZM145.882 137.016H138.25L136.786 141H135.01L141.13 124.44H143.026L149.122 141H147.346L145.882 137.016ZM145.378 135.624L142.066 126.552L138.754 135.624H145.378ZM162.546 129.048C162.546 130.488 162.074 131.648 161.13 132.528C160.186 133.408 158.77 133.848 156.882 133.848H153.498V141H151.818V124.224H156.882C158.754 124.224 160.162 124.664 161.106 125.544C162.066 126.424 162.546 127.592 162.546 129.048ZM156.882 132.408C159.506 132.408 160.818 131.288 160.818 129.048C160.818 127.928 160.506 127.08 159.882 126.504C159.258 125.928 158.258 125.64 156.882 125.64H153.498V132.408H156.882ZM176.919 124.224C178.775 124.224 180.367 124.56 181.695 125.232C183.023 125.904 184.039 126.872 184.743 128.136C185.447 129.4 185.799 130.904 185.799 132.648C185.799 134.376 185.447 135.872 184.743 137.136C184.039 138.384 183.023 139.344 181.695 140.016C180.367 140.672 178.775 141 176.919 141H171.951V124.224H176.919ZM176.919 139.608C179.255 139.608 181.031 139 182.247 137.784C183.479 136.552 184.095 134.84 184.095 132.648C184.095 130.44 183.479 128.72 182.247 127.488C181.031 126.24 179.255 125.616 176.919 125.616H173.631V139.608H176.919ZM190.577 124.224V141H188.897V124.224H190.577ZM210.773 124.44V141H209.093V127.776L203.189 141H201.965L196.061 127.824V141H194.381V124.44H196.157L202.565 138.792L208.973 124.44H210.773ZM224.304 137.016H216.672L215.208 141H213.432L219.552 124.44H221.448L227.544 141H225.768L224.304 137.016ZM223.8 135.624L220.488 126.552L217.176 135.624H223.8ZM239.192 141L231.92 133.248V141H230.24V124.224H231.92V132.072L239.192 124.224H241.328L233.48 132.6L241.4 141H239.192ZM253.601 137.016H245.969L244.505 141H242.729L248.849 124.44H250.745L256.841 141H255.065L253.601 137.016ZM253.097 135.624L249.785 126.552L246.473 135.624H253.097ZM272.185 141H270.505L261.217 126.888V141H259.537V124.224H261.217L270.505 138.312V124.224H272.185V141Z" fill="black"/>
<path d="M181 51.082V43H151.879V44.7578H179.242V50.0312H122.758V44.7578H150.121V43H121V51.082L125.06 61.0697L126.688 60.4079L123.185 51.7891H126.039L133.837 71.8714L131.161 71.4125L127.35 62.0366L125.722 62.6985L129.9 72.9797L133.8 73.6485L121 94.845V103H181V94.845L174.658 84.3429L173.153 85.2516L178.564 94.2109H174.033L167.661 79.8452V76.1556L172.245 83.7468L173.749 82.8381L168.2 73.6485L172.1 72.9797L181 51.082ZM179.242 95.9688V101.242H122.758V95.9688H150.121V94.2109H129.89L132.325 88.7205L130.719 88.0077L127.967 94.2109H123.436L134.339 76.1556V79.8449L131.432 86.4005L133.038 87.1132L135.79 80.91H166.21L172.11 94.2109H151.879V95.9688H179.242ZM168.163 71.8714L171.572 63.0927L169.933 62.4564L166.18 72.1211H151.879V73.8789H165.903V79.1523H136.097V73.8789H150.121V72.1211H135.82L127.925 51.7891H174.075L170.569 60.8174L172.208 61.4538L175.961 51.7891H178.815L170.839 71.4125L168.163 71.8714Z" fill="black"/>
<path d="M134.194 88.5164L136.31 83.7539L137.916 84.4675L135.801 89.23L134.194 88.5164Z" fill="black"/>
<path d="M162.387 75.6365H164.145V77.3943H162.387V75.6365Z" fill="black"/>
<path d="M128.031 97.7266H133.305V99.4844H128.031V97.7266Z" fill="black"/>
<path d="M132.767 91.7383L133.481 90.1316L135.087 90.8453L134.374 92.452L132.767 91.7383Z" fill="black"/>
<path d="M124.516 97.7266H126.273V99.4844H124.516V97.7266Z" fill="black"/>
<path d="M175.727 46.5156H177.484V48.2734H175.727V46.5156Z" fill="black"/>
<path d="M166.591 61.7659L168.551 56.6532L170.193 57.2825L168.233 62.3951L166.591 61.7659Z" fill="black"/>
<path d="M168.695 46.5156H173.969V48.2734H168.695V46.5156Z" fill="black"/>
<path d="M169.178 55.0303L169.815 53.392L171.453 54.0283L170.816 55.6666L169.178 55.0303Z" fill="black"/>
<path d="M151.879 61.0762H153.637V62.834H151.879V61.0762Z" fill="black"/>
<path d="M148.363 61.0762H150.121V62.834H148.363V61.0762Z" fill="black"/>
</svg>
