<svg width="35" height="33" viewBox="0 0 35 33" fill="none" xmlns="http://www.w3.org/2000/svg">
<path d="M32.2234 3.9614C30.4116 1.99633 27.9256 0.914062 25.2227 0.914062C23.2024 0.914062 21.3522 1.5528 19.7233 2.81237C18.9014 3.44817 18.1566 4.22602 17.5 5.13392C16.8436 4.22629 16.0986 3.44817 15.2765 2.81237C13.6478 1.5528 11.7976 0.914062 9.77726 0.914062C7.07439 0.914062 4.58809 1.99633 2.7763 3.9614C0.986137 5.9035 0 8.55669 0 11.4326C0 14.3926 1.1031 17.1021 3.47137 19.9599C5.58998 22.5162 8.63491 25.1111 12.161 28.116C13.3651 29.1422 14.7298 30.3054 16.147 31.5444C16.5213 31.8723 17.0017 32.0528 17.5 32.0528C17.998 32.0528 18.4787 31.8723 18.8525 31.5449C20.2696 30.3057 21.6352 29.1419 22.8398 28.1152C26.3654 25.1109 29.4103 22.5162 31.5289 19.9596C33.8972 17.1021 35 14.3926 35 11.4323C35 8.55669 34.0139 5.9035 32.2234 3.9614Z" fill="#5B3937"/>
</svg>
