<svg id="Capa_1" enable-background="new 0 0 512 512" height="512" viewBox="0 0 512 512" width="512" xmlns="http://www.w3.org/2000/svg"><g><path d="m512 68.966v-68.966h-248.5v15h233.5v45h-482v-45h233.5v-15h-248.5v68.966l34.642 85.229 13.896-5.648-29.894-73.547h24.358l66.542 171.369-22.837-3.916-32.52-80.007-13.896 5.648 35.659 87.733 33.275 5.707-109.225 180.877v69.589h512v-69.589l-54.117-89.618-12.84 7.754 46.167 76.453h-38.661l-54.377-122.588v-31.484l39.117 64.778 12.84-7.754-47.353-78.418 33.274-5.707zm-15 383.034v45h-482v-45h233.5v-15h-172.639l20.783-46.852-13.712-6.082-23.48 52.934h-38.662l93.039-154.072v31.482l-24.813 55.941 13.712 6.082 23.48-52.934h259.587l50.344 113.501h-172.639v15zm-94.544-205.631 29.088-74.911-13.982-5.43-32.024 82.472h-122.038v15h119.671v45h-254.342v-45h119.671v-15h-122.038l-67.37-173.5h393.815l-29.915 77.042 13.982 5.43 32.024-82.472h24.358l-68.063 167.453z"/><path d="m106.206 363.479h44.464v15h-44.464z" transform="matrix(.406 -.914 .914 .406 -262.75 337.906)"/><path d="m353.171 278.499h15v15h-15z"/><path d="m60 467h45v15h-45z"/><path d="m102.796 404.368h15v15h-15z" transform="matrix(.406 -.914 .914 .406 -310.916 345.683)"/><path d="m30 467h15v15h-15z"/><path d="m467 30h15v15h-15z"/><path d="m380.979 133.587h46.711v14.999h-46.711z" transform="matrix(.358 -.934 .934 .358 127.884 468.146)"/><path d="m407 30h45v15h-45z"/><path d="m413.338 90.805h15v15h-15z" transform="matrix(.362 -.932 .932 .362 176.862 455.018)"/><path d="m263.5 154.25h15v15h-15z"/><path d="m233.5 154.25h15v15h-15z"/></g></svg>